<svg id="logo" xmlns="http://www.w3.org/2000/svg" xmlns:xlink="http://www.w3.org/1999/xlink" width="102.627" height="146.765" viewBox="0 0 102.627 146.765">
  <defs>
    <clipPath id="clip-path">
      <rect id="Rectangle_2" data-name="Rectangle 2" width="102.627" height="146.765" fill="none"/>
    </clipPath>
    <clipPath id="clip-path-2">
      <path id="Path_41" data-name="Path 41" d="M78.3,41.573l-.025.032a57.805,57.805,0,0,1-5.127,5.862c-.889.943-1.907,1.727-2.867,2.581a29.387,29.387,0,0,1-3.138,2.177A20.548,20.548,0,0,1,52.638,55a30.536,30.536,0,0,1-7.294-2.347c-1.164-.572-2.3-1.14-3.565-1.717a26.8,26.8,0,0,0-3.82-1.484,15.218,15.218,0,0,0-8.18-.236,9.84,9.84,0,0,0-6.2,4.889,9.592,9.592,0,0,1,6.4-4.044,14.654,14.654,0,0,1,7.481.965c2.418.911,4.567,2.193,7.053,3.42a32.554,32.554,0,0,0,7.759,2.622,23.342,23.342,0,0,0,8.294.078,22.5,22.5,0,0,0,7.719-3.035,32.125,32.125,0,0,0,3.38-2.357,37.808,37.808,0,0,0,3-2.779,52.2,52.2,0,0,0,5.181-6.221A.97.97,0,0,0,78.3,41.573" fill="none"/>
    </clipPath>
    <linearGradient id="linear-gradient" x1="-0.417" y1="6.424" x2="-0.399" y2="6.424" gradientUnits="objectBoundingBox">
      <stop offset="0" stop-color="#77517e"/>
      <stop offset="1" stop-color="#343756"/>
    </linearGradient>
    <clipPath id="clip-path-4">
      <path id="Path_43" data-name="Path 43" d="M52.117,63.234l1.671,1.67,1.6-1.67-1.6-1.722Z" fill="none"/>
    </clipPath>
    <linearGradient id="linear-gradient-2" x1="-15.948" y1="25.134" x2="-15.642" y2="25.134" xlink:href="#linear-gradient"/>
    <clipPath id="clip-path-5">
      <path id="Path_44" data-name="Path 44" d="M29.479,79.526l1.6,1.635,1.672-1.635L31.078,77.8Z" fill="none"/>
    </clipPath>
    <linearGradient id="linear-gradient-3" x1="-9.012" y1="20.531" x2="-8.707" y2="20.531" xlink:href="#linear-gradient"/>
    <clipPath id="clip-path-6">
      <path id="Path_45" data-name="Path 45" d="M64.459,70.834a7.237,7.237,0,0,0-2.814-1.3l.541-1.021a16.914,16.914,0,0,1,1.788-.447,10.491,10.491,0,0,1,2.037-.2,4.262,4.262,0,0,1,2.484.558,1.532,1.532,0,0,1,.711,1.263,2.23,2.23,0,0,1-.281,1.066A5.842,5.842,0,0,1,68.2,71.81a9.658,9.658,0,0,1-.956.981h0c-.255.231-.5.443-.742.637a7.574,7.574,0,0,0-2.038-2.594M76.3,63.311V72.5a2.228,2.228,0,0,1-.469,1.439,1.541,1.541,0,0,1-1.3.567H68.8c.223-.187.448-.38.668-.583a9.925,9.925,0,0,0,1.162-1.249,6.43,6.43,0,0,0,.86-1.444,4.174,4.174,0,0,0,.342-1.688,3.372,3.372,0,0,0-.484-1.784,4,4,0,0,0-1.27-1.285,6.184,6.184,0,0,0-1.742-.754,10.338,10.338,0,0,0-4.879.068,13.557,13.557,0,0,0-2.576.829l-.091.041-1.71,3.8-.023.107c0,.235.115.261.864.436a7.608,7.608,0,0,1,3.261,1.8,5,5,0,0,1,1.2,1.707H56.19a.939.939,0,0,1-.826-.312,1.821,1.821,0,0,1-.246-1.029V65.319l-2.287,1.865v6.068a1.8,1.8,0,0,1-.221.965c-.123.193-.41.291-.85.291H42.008a1.175,1.175,0,0,1-1.083-.476,3.145,3.145,0,0,1-.457-1.267l-.981-7.247-2.1,1.679.914,6.655c.018.089.03.17.041.247a1.31,1.31,0,0,1,.012.144c0,.161-.053.182-.073.19a1.606,1.606,0,0,1-.56.075H24.755a2.806,2.806,0,0,1-1.4-.326,3.223,3.223,0,0,1-.977-.834,3.791,3.791,0,0,1-.774-2.177,3.13,3.13,0,0,1,.3-1.374,3.448,3.448,0,0,1,.809-1.086,4.308,4.308,0,0,1,1.217-.774,5.333,5.333,0,0,1,1.484-.4l.139-.016.967-1.971h-.627a8.009,8.009,0,0,0-2.45.374,6.531,6.531,0,0,0-2.077,1.1A5.342,5.342,0,0,0,19.912,68.8a5.227,5.227,0,0,0-.539,2.4,6.449,6.449,0,0,0,.378,2.218,5.527,5.527,0,0,0,1.09,1.842,5.215,5.215,0,0,0,1.713,1.251,5.414,5.414,0,0,0,2.245.454H37.224a3.641,3.641,0,0,0,1.327-.251,1.726,1.726,0,0,0,.835-.706,2.239,2.239,0,0,0,.989.723,4.366,4.366,0,0,0,1.435.234H51.844a3.849,3.849,0,0,0,1.335-.25,1.578,1.578,0,0,0,.772-.586,1.437,1.437,0,0,0,.164.184,2.154,2.154,0,0,0,.619.41,2.6,2.6,0,0,0,.675.2,4.333,4.333,0,0,0,.582.045h8.082a4.233,4.233,0,0,0,1.372-.248,1.773,1.773,0,0,0,.854-.606,1.175,1.175,0,0,0,.181.2,2.308,2.308,0,0,0,.623.408,2.54,2.54,0,0,0,.678.2,4.111,4.111,0,0,0,.552.045h6.255a3.513,3.513,0,0,0,3.047-1.311,5.387,5.387,0,0,0,.92-3.237V61.366Z" fill="none"/>
    </clipPath>
    <linearGradient id="linear-gradient-4" x1="-0.327" y1="5.475" x2="-0.31" y2="5.475" xlink:href="#linear-gradient"/>
    <clipPath id="clip-path-7">
      <path id="Path_46" data-name="Path 46" d="M80.967,63.311V76.965h2.287V61.372Z" fill="none"/>
    </clipPath>
    <linearGradient id="linear-gradient-5" x1="-35.403" y1="5.476" x2="-34.966" y2="5.476" xlink:href="#linear-gradient"/>
  </defs>
  <path id="Path_1" data-name="Path 1" d="M4.889,126.923l.694-.679-.694-.71-.532.544-.522-.544-.68.71.68.68.522-.521Z" fill="#343756"/>
  <path id="Path_2" data-name="Path 2" d="M27.224,126.229l-.71-.717-.679.717.679.694Z" fill="#343756"/>
  <path id="Path_3" data-name="Path 3" d="M41.886,126.08l-.71-.71-.679.71.679.694Z" fill="#343756"/>
  <g id="Group_2" data-name="Group 2">
    <g id="Group_1" data-name="Group 1" clip-path="url(#clip-path)">
      <path id="Path_4" data-name="Path 4" d="M46.149,125.535h2.157v-.511h-.74a.428.428,0,0,1-.325-.1.338.338,0,0,1-.089-.237.214.214,0,0,1,.1-.194.573.573,0,0,1,.545,0l.041.027v-.462l-.017-.008a1.1,1.1,0,0,0-.16-.05,1.129,1.129,0,0,0-.249-.022.863.863,0,0,0-.532.173.641.641,0,0,0-.236.552,1.1,1.1,0,0,0,.014.179l.02.12-.117.022h-.808Z" fill="#343756"/>
      <path id="Path_5" data-name="Path 5" d="M59.092,126.268l.655.655.695-.68-.695-.709-.655.684-.669-.684-.68.709.68.68Z" fill="#343756"/>
      <path id="Path_6" data-name="Path 6" d="M98.947,125.534l-.662.683-.669-.683-.71.71.71.679.669-.654.662.655.68-.68Z" fill="#343756"/>
      <path id="Path_7" data-name="Path 7" d="M20.983,127.57l-.837.7.461,3.256c0,.022.008.047.011.071a.305.305,0,0,0,.008.054l0,.118a.2.2,0,0,1-.062.167l-.027.019a.852.852,0,0,1-.347.052H6.3a.622.622,0,0,1-.6-.262,1.545,1.545,0,0,1-.148-.705V127.6H4.607l-.011.017a1.062,1.062,0,0,1-.374.394,2.613,2.613,0,0,1-.549.22,3.738,3.738,0,0,1-.611.118l-.619.093a3.153,3.153,0,0,0-1.733.866,2.133,2.133,0,0,0-.618,1.513,1.978,1.978,0,0,0,.2.931,1.991,1.991,0,0,0,.525.687,2.358,2.358,0,0,0,.761.43,2.742,2.742,0,0,0,1.9-.071,2.718,2.718,0,0,0,.926-.593h0l-.111-.676a1.872,1.872,0,0,1-.688.45,2.584,2.584,0,0,1-1.563.108,1.535,1.535,0,0,1-.515-.247A1.218,1.218,0,0,1,1,130.822a1.091,1.091,0,0,1,.139-.561,1.518,1.518,0,0,1,.332-.421,1.835,1.835,0,0,1,.448-.317q.219-.1.471-.193c.172-.048.352-.086.527-.123L3,129.191c.21-.034.412-.077.582-.115a3.317,3.317,0,0,0,.556-.172,2.5,2.5,0,0,0,.294-.167l.16-.108.021,2.74a3.3,3.3,0,0,0,.06.495,1.6,1.6,0,0,0,.246.64,1.193,1.193,0,0,0,.507.4,2.094,2.094,0,0,0,.8.127h14.11a1.35,1.35,0,0,0,.854-.292,1.158,1.158,0,0,0,.377-.96V131.6a1.572,1.572,0,0,0-.02-.215Z" fill="#343756"/>
      <path id="Path_8" data-name="Path 8" d="M19.551,133.708l-.68.717.68.68.519-.52.52.52.709-.68-.709-.717-.52.548Z" fill="#343756"/>
      <path id="Path_9" data-name="Path 9" d="M40.262,131.42a2.354,2.354,0,0,1-.52-.626,1.776,1.776,0,0,1-.231-.756,1.32,1.32,0,0,1,.407-1.019,1.843,1.843,0,0,1,1.288-.384,4.634,4.634,0,0,1,.934.085,4.806,4.806,0,0,1,.757.22l.024.008.453-.913-.03-.01c-.283-.089-.621-.174-1-.253a6.073,6.073,0,0,0-1.205-.118,3.405,3.405,0,0,0-1.138.172,2.4,2.4,0,0,0-.819.476,2.013,2.013,0,0,0-.5.707,2.273,2.273,0,0,0-.169.88,2.606,2.606,0,0,0,.26,1.134,3.893,3.893,0,0,0,.529.813l.141.168H28.367a.621.621,0,0,1-.5-.2,1.006,1.006,0,0,1-.23-.476l-.5-3.857-.956.723.43,3.138c.009.077.013.124.013.143a.525.525,0,0,1-.144.382.572.572,0,0,1-.426.145H24.521a1.019,1.019,0,0,1-.492-.113,1.1,1.1,0,0,1-.35-.306,1.431,1.431,0,0,1-.22-.438,2.556,2.556,0,0,1-.106-.493l0-.024h-.888l0,.031a4.586,4.586,0,0,0,.175.95,2.11,2.11,0,0,0,.4.751,1.8,1.8,0,0,0,.664.5,2.346,2.346,0,0,0,.959.177h1.474a1.9,1.9,0,0,0,.643-.119.752.752,0,0,0,.377-.294l.081-.121.086.118a.85.85,0,0,0,.376.3,1.534,1.534,0,0,0,.523.119H44.313L44.87,132H41.819a2.3,2.3,0,0,1-.838-.157,2.622,2.622,0,0,1-.719-.427" fill="#343756"/>
      <path id="Path_10" data-name="Path 10" d="M50.695,130.767l-.647-.852.035-.059a5.094,5.094,0,0,0,.631-1.643,10.05,10.05,0,0,0,.161-1.827v-.321c0-.086,0-.2-.015-.35v-.027H49.822v.541a12.294,12.294,0,0,1-.085,1.453,4.492,4.492,0,0,1-.315,1.19l-.067.162-.846-1.081c-.268-.342-.564-.708-.879-1.087l-.008-.01H46.38l.038.046c.575.686,1.162,1.406,1.745,2.14.571.718,1.153,1.469,1.729,2.232a.947.947,0,0,1,.117.2.491.491,0,0,1,.048.195.3.3,0,0,1-.108.24.474.474,0,0,1-.326.1H47.642l.388-.193a3.682,3.682,0,0,0,.433-.258,3.537,3.537,0,0,0,.441-.355,1.7,1.7,0,0,0,.316-.391l.009-.017-.579-.724-.02.037a2.629,2.629,0,0,1-.473.589,6.226,6.226,0,0,1-.74.623,4.925,4.925,0,0,1-.843.492,1.908,1.908,0,0,1-.775.2h-.028v1.032h3.937a1.283,1.283,0,0,0,1-.38,1.267,1.267,0,0,0,.342-.873,1.923,1.923,0,0,0-.072-.513,1.323,1.323,0,0,0-.279-.5" fill="#343756"/>
      <path id="Path_11" data-name="Path 11" d="M52.358,133.036H53.3v-7.522l-.946.8Z" fill="#343756"/>
      <path id="Path_12" data-name="Path 12" d="M61.365,129.215a2.958,2.958,0,0,0-.471-.906,2.351,2.351,0,0,0-.76-.641,2.139,2.139,0,0,0-1.028-.243,2.267,2.267,0,0,0-1.859.884,2.827,2.827,0,0,0-.464.906,3.639,3.639,0,0,0,.007,2.118,2.617,2.617,0,0,0,.479.885,2.312,2.312,0,0,0,.774.6,2.409,2.409,0,0,0,1.049.22,2.338,2.338,0,0,0,1.049-.227,2.256,2.256,0,0,0,.767-.613,2.674,2.674,0,0,0,.465-.885,3.635,3.635,0,0,0,.153-1.059,3.4,3.4,0,0,0-.161-1.037m-.812,1.756a1.9,1.9,0,0,1-.3.611,1.433,1.433,0,0,1-1.194.592A1.4,1.4,0,0,1,57.9,131.6a1.854,1.854,0,0,1-.294-.609,2.567,2.567,0,0,1,0-1.4,2.185,2.185,0,0,1,.295-.64,1.6,1.6,0,0,1,.5-.469,1.31,1.31,0,0,1,.684-.182,1.294,1.294,0,0,1,.682.181,1.681,1.681,0,0,1,.5.459,2.07,2.07,0,0,1,.294.626,2.512,2.512,0,0,1,.1.693,2.585,2.585,0,0,1-.1.719" fill="#343756"/>
      <path id="Path_13" data-name="Path 13" d="M64.532,127.489l-.941.678.487,3.9c.009.067.016.137.02.215s.007.171.007.278a1.289,1.289,0,0,1-.25.824,1.723,1.723,0,0,1-.656.5,3.1,3.1,0,0,1-.9.247,7.772,7.772,0,0,1-.989.063H61.3l-.447.918h.906a7.46,7.46,0,0,0,1.087-.089,3.448,3.448,0,0,0,1.111-.363,2.349,2.349,0,0,0,.859-.773,2.314,2.314,0,0,0,.339-1.309,4.929,4.929,0,0,0-.043-.616Z" fill="#343756"/>
      <path id="Path_14" data-name="Path 14" d="M92.56,134.328l.695-.679-.695-.695-.694.695Z" fill="#343756"/>
      <path id="Path_15" data-name="Path 15" d="M100.706,132H99.424a.561.561,0,0,1-.5-.2,1.016,1.016,0,0,1-.141-.576v-3.733l-.946.772v3a.952.952,0,0,1-.135.541A.573.573,0,0,1,97.2,132h-1.88A.366.366,0,0,1,95,131.84a.594.594,0,0,1-.123-.363v-.69l.084-.015c.128-.023.254-.04.374-.051.162-.014.34-.025.533-.036h.015l.573-1h-.881a3.6,3.6,0,0,1-1.477-.29c-.434-.193-.864-.41-1.279-.646s-.846-.452-1.295-.65a3.759,3.759,0,0,0-1.517-.294,3.076,3.076,0,0,0-.826.119,2.75,2.75,0,0,0-.842.413l-.012.008v1.321l.047-.048a2.069,2.069,0,0,1,.771-.5,2.518,2.518,0,0,1,.834-.144,3.56,3.56,0,0,1,1.039.144,5.543,5.543,0,0,1,.864.348,8.142,8.142,0,0,1,.763.44,5.754,5.754,0,0,0,.533.309l.173.089-.173.092a18.283,18.283,0,0,1-2.592,1.141,8.735,8.735,0,0,1-2.843.471H68.079a.841.841,0,0,1-.732-.329,1.281,1.281,0,0,1-.245-.783v-5.378l-.946.8v4.535a3.7,3.7,0,0,0,.09.822,1.915,1.915,0,0,0,.31.7,1.571,1.571,0,0,0,.585.482,2.027,2.027,0,0,0,.9.178h19.9a8.612,8.612,0,0,0,2.229-.322,12.233,12.233,0,0,0,2.436-.966c.249-.135.485-.26.706-.37q.222-.114.423-.224l.152-.084v.478a1.45,1.45,0,0,0,.419,1.078,1.509,1.509,0,0,0,1.1.41h1.837a1.85,1.85,0,0,0,.637-.119.736.736,0,0,0,.351-.265l.084-.116.082.117a.564.564,0,0,0,.073.082.973.973,0,0,0,.282.188,1.214,1.214,0,0,0,.315.091,2,2,0,0,0,.262.022h1.41a1.673,1.673,0,0,0,1.45-.617,2.622,2.622,0,0,0,.444-1.569v-5.337l-.932.8v4.577a1.236,1.236,0,0,1-.258.788.866.866,0,0,1-.732.324" fill="#343756"/>
      <rect id="Rectangle_1" data-name="Rectangle 1" width="0.823" height="0.942" transform="translate(93.249 139.912)" fill="#343756"/>
      <path id="Path_16" data-name="Path 16" d="M2.1,142.65H3.145v1.557a1.273,1.273,0,0,1-.154.06c-.084.027-.17.052-.259.077a1.7,1.7,0,0,1-.251.053,1.8,1.8,0,0,1-.231.017,1.216,1.216,0,0,1-.652-.168,1.331,1.331,0,0,1-.44-.449,2.1,2.1,0,0,1-.249-.643,3.39,3.39,0,0,1-.081-.737,4.237,4.237,0,0,1,.081-.832,2.194,2.194,0,0,1,.262-.7,1.425,1.425,0,0,1,.481-.483,1.4,1.4,0,0,1,.736-.182,2.284,2.284,0,0,1,.568.07,2.448,2.448,0,0,1,.513.192l.084.042.338-.65-.1-.039a4.93,4.93,0,0,0-.726-.225,3.347,3.347,0,0,0-.742-.085,2.228,2.228,0,0,0-1.085.246,2.082,2.082,0,0,0-.722.657,2.786,2.786,0,0,0-.4.94,4.961,4.961,0,0,0-.12,1.1,3.894,3.894,0,0,0,.121.967,2.55,2.55,0,0,0,.385.843,2.005,2.005,0,0,0,.681.6,2.059,2.059,0,0,0,.992.228,3.4,3.4,0,0,0,.893-.133,4.741,4.741,0,0,0,.849-.319l.053-.026v-2.657H2.1Z" fill="#343756"/>
      <path id="Path_17" data-name="Path 17" d="M7.153,141.214a.845.845,0,0,0-.869.125,4.7,4.7,0,0,0-.359.314c0-.013-.007-.026-.01-.039a.984.984,0,0,0-.069-.188,1.792,1.792,0,0,0-.085-.2l-.037-.073-.734.24.224.525V144.3c0,.089,0,.17.01.242a1.364,1.364,0,0,0,.028.193c.012.07.024.133.037.188L5.3,145h.684v-2.608c.124-.147.245-.28.361-.4a.464.464,0,0,1,.329-.159.273.273,0,0,1,.162.043c.057.039.125.092.206.159l.09.074.36-.678-.063-.05a1.451,1.451,0,0,0-.281-.168" fill="#343756"/>
      <path id="Path_18" data-name="Path 18" d="M10.646,141.641h0a1.383,1.383,0,0,0-.455-.385,1.366,1.366,0,0,0-.649-.147,1.517,1.517,0,0,0-.693.159,1.563,1.563,0,0,0-.525.438,2.035,2.035,0,0,0-.326.648,2.76,2.76,0,0,0-.113.8,2.532,2.532,0,0,0,.123.812,1.833,1.833,0,0,0,.342.611,1.538,1.538,0,0,0,.511.39,1.484,1.484,0,0,0,.636.138,1.975,1.975,0,0,0,.659-.1,3.742,3.742,0,0,0,.6-.286l.081-.047-.32-.573-.084.049c-.143.084-.283.161-.417.227a1,1,0,0,1-.856-.011.9.9,0,0,1-.285-.263,1.151,1.151,0,0,1-.164-.367,1.616,1.616,0,0,1-.053-.4l1.555-.007c.133,0,.25,0,.344-.009.109,0,.214,0,.313-.009l.081-.005.031-.29c.009-.09.014-.166.014-.228a2.143,2.143,0,0,0-.087-.605,1.664,1.664,0,0,0-.265-.537m-.408,1.064H8.69a1.388,1.388,0,0,1,.053-.275,1.182,1.182,0,0,1,.165-.347.888.888,0,0,1,.265-.253.652.652,0,0,1,.677,0,.72.72,0,0,1,.227.245,1.2,1.2,0,0,1,.125.347,2.043,2.043,0,0,1,.036.284" fill="#343756"/>
      <path id="Path_19" data-name="Path 19" d="M14.647,141.641a1.325,1.325,0,0,0-1.1-.533,1.523,1.523,0,0,0-.693.159,1.563,1.563,0,0,0-.525.438,2.013,2.013,0,0,0-.325.648,2.722,2.722,0,0,0-.114.8,2.527,2.527,0,0,0,.123.812,1.843,1.843,0,0,0,.342.611,1.538,1.538,0,0,0,.511.39,1.484,1.484,0,0,0,.636.138,1.975,1.975,0,0,0,.659-.1,3.7,3.7,0,0,0,.6-.286l.081-.047-.32-.573-.084.049c-.145.086-.285.162-.417.227a1,1,0,0,1-.856-.011.9.9,0,0,1-.285-.263,1.13,1.13,0,0,1-.164-.367,1.645,1.645,0,0,1-.053-.4l1.555-.007c.133,0,.25,0,.344-.009s.214,0,.314-.009l.079-.005.009-.079c.007-.055.014-.125.023-.211s.014-.166.014-.228a2.128,2.128,0,0,0-.087-.605,1.664,1.664,0,0,0-.265-.537m-.408,1.064H12.691a1.388,1.388,0,0,1,.053-.275,1.16,1.16,0,0,1,.166-.347.885.885,0,0,1,.264-.253.652.652,0,0,1,.677,0,.72.72,0,0,1,.227.245,1.2,1.2,0,0,1,.126.347,2.2,2.2,0,0,1,.035.284" fill="#343756"/>
      <path id="Path_20" data-name="Path 20" d="M17.34,141.335a5.38,5.38,0,0,0-.528.344,1.507,1.507,0,0,0-.081-.281,1.773,1.773,0,0,0-.075-.174l-.037-.077-.71.253.174.484V144.3c0,.074,0,.147.01.222a1.78,1.78,0,0,0,.027.2c.012.07.025.134.036.2l.016.076h.677v-2.643a2.527,2.527,0,0,1,.2-.172c.09-.069.185-.134.289-.2a2.127,2.127,0,0,1,.289-.155.451.451,0,0,1,.44,0,.346.346,0,0,1,.123.144.671.671,0,0,1,.058.223c.009.09.013.183.013.279V144.3c0,.074,0,.147.009.222a1.739,1.739,0,0,0,.029.208c.015.072.032.137.051.2l.02.068h.666v-2.718a1.191,1.191,0,0,0-.286-.857,1.111,1.111,0,0,0-1.414-.087" fill="#343756"/>
      <path id="Path_21" data-name="Path 21" d="M24.388,142.65h1.044v1.557a1.179,1.179,0,0,1-.154.06c-.084.027-.17.052-.259.077a1.685,1.685,0,0,1-.252.053,1.769,1.769,0,0,1-.23.017,1.222,1.222,0,0,1-.653-.168,1.334,1.334,0,0,1-.439-.448,2.135,2.135,0,0,1-.25-.644,3.431,3.431,0,0,1-.08-.737,4.215,4.215,0,0,1,.081-.832,2.156,2.156,0,0,1,.262-.7,1.419,1.419,0,0,1,.481-.484,1.4,1.4,0,0,1,.736-.182,2.284,2.284,0,0,1,.568.07,2.448,2.448,0,0,1,.513.192l.084.042.337-.65-.1-.039a4.977,4.977,0,0,0-.726-.225,3.354,3.354,0,0,0-.742-.085,2.228,2.228,0,0,0-1.085.246,2.065,2.065,0,0,0-.722.657,2.781,2.781,0,0,0-.4.94,4.942,4.942,0,0,0-.12,1.1,3.876,3.876,0,0,0,.121.967,2.528,2.528,0,0,0,.385.843,2,2,0,0,0,.681.6,2.055,2.055,0,0,0,.991.228,3.405,3.405,0,0,0,.894-.133,4.741,4.741,0,0,0,.849-.319l.053-.026v-2.657H24.388Z" fill="#343756"/>
      <path id="Path_22" data-name="Path 22" d="M29.439,141.214a.847.847,0,0,0-.869.125c-.113.088-.233.194-.359.314l-.01-.04a.942.942,0,0,0-.069-.186,1.566,1.566,0,0,0-.085-.2l-.036-.074-.735.24.225.525V144.3c0,.089,0,.17.009.242a1.342,1.342,0,0,0,.028.193c.012.07.024.133.036.188l.017.074h.685v-2.608c.123-.146.244-.279.36-.4a.464.464,0,0,1,.33-.159.272.272,0,0,1,.161.043c.057.039.126.092.206.158l.09.075.36-.678-.063-.049a1.335,1.335,0,0,0-.281-.169" fill="#343756"/>
      <path id="Path_23" data-name="Path 23" d="M33.1,142.015a.833.833,0,0,0-.321-.707,1.655,1.655,0,0,0-1.521-.1,5.589,5.589,0,0,0-.836.36l-.092.048.349.544.077-.041a6.228,6.228,0,0,1,.589-.265c.4-.158.8-.168.922-.013a.645.645,0,0,1,.094.386v.367c-.051,0-.1-.007-.154-.007h-.233a2.136,2.136,0,0,0-1.257.339,1.141,1.141,0,0,0-.493.983,1.21,1.21,0,0,0,.3.838,1.106,1.106,0,0,0,.863.342,1.231,1.231,0,0,0,.375-.058,1.634,1.634,0,0,0,.321-.145,1.662,1.662,0,0,0,.263-.2l.048-.045c0,.018.011.036.017.053a1.29,1.29,0,0,0,.088.188.509.509,0,0,0,.15.167l.043.03.588-.259-.183-.469Zm-.739,1.178v.708a2.628,2.628,0,0,1-.38.388.73.73,0,0,1-.484.17.446.446,0,0,1-.387-.161.669.669,0,0,1-.129-.409.612.612,0,0,1,.241-.52,1.284,1.284,0,0,1,.771-.192c.064,0,.139,0,.224,0,.049,0,.1.006.144.012" fill="#343756"/>
      <path id="Path_24" data-name="Path 24" d="M37.1,141.756a1.461,1.461,0,0,0-.465-.454,1.29,1.29,0,0,0-.681-.176,1.151,1.151,0,0,0-.575.153,3.837,3.837,0,0,0-.351.223.74.74,0,0,0-.084-.167.576.576,0,0,0-.085-.14l-.043-.051-.7.257.173.492v4.133c0,.082,0,.161,0,.238a2.2,2.2,0,0,0,.018.22,1.323,1.323,0,0,1,.041.17l.021.111.7-.253v-1.6a2.259,2.259,0,0,0,.244.1,1.448,1.448,0,0,0,.473.077,1.581,1.581,0,0,0,.715-.156,1.546,1.546,0,0,0,.52-.428,1.85,1.85,0,0,0,.318-.644,2.975,2.975,0,0,0,.021-1.478,1.992,1.992,0,0,0-.263-.625m-.438,1.348a2.542,2.542,0,0,1-.056.543,1.166,1.166,0,0,1-.181.428,1,1,0,0,1-.306.288.88.88,0,0,1-.76.035,1.953,1.953,0,0,1-.287-.158v-2.082a1.422,1.422,0,0,1,.345-.272.685.685,0,0,1,.784-.007.941.941,0,0,1,.265.312,1.584,1.584,0,0,1,.149.44,2.585,2.585,0,0,1,.047.473" fill="#343756"/>
      <path id="Path_25" data-name="Path 25" d="M41.14,141.641a1.325,1.325,0,0,0-1.1-.533,1.517,1.517,0,0,0-.693.159,1.565,1.565,0,0,0-.525.438,2.035,2.035,0,0,0-.326.648,2.76,2.76,0,0,0-.113.8,2.5,2.5,0,0,0,.123.812,1.833,1.833,0,0,0,.342.611,1.538,1.538,0,0,0,.511.39,1.484,1.484,0,0,0,.636.138,1.98,1.98,0,0,0,.659-.1,3.742,3.742,0,0,0,.6-.286l.081-.047-.32-.573-.084.049c-.143.084-.283.161-.417.227a1,1,0,0,1-.856-.011.9.9,0,0,1-.285-.263,1.151,1.151,0,0,1-.164-.367,1.616,1.616,0,0,1-.053-.4l1.555-.007c.133,0,.25,0,.344-.009s.214,0,.313-.009l.081-.005.031-.29c.009-.09.014-.166.014-.228a2.143,2.143,0,0,0-.087-.605,1.664,1.664,0,0,0-.265-.537m-.408,1.064H39.184a1.388,1.388,0,0,1,.053-.275,1.182,1.182,0,0,1,.165-.347.888.888,0,0,1,.265-.253.652.652,0,0,1,.677,0,.741.741,0,0,1,.227.245,1.2,1.2,0,0,1,.125.347,2.042,2.042,0,0,1,.036.284" fill="#343756"/>
      <path id="Path_26" data-name="Path 26" d="M44.214,143.127q-.228-.185-.464-.354c-.156-.114-.314-.226-.474-.338a.709.709,0,0,1-.182-.155.265.265,0,0,1-.047-.167.306.306,0,0,1,.136-.256.566.566,0,0,1,.353-.112,1.033,1.033,0,0,1,.384.062c.115.046.233.095.354.148l.085.038.282-.6-.091-.039a4.212,4.212,0,0,0-.454-.16,2.091,2.091,0,0,0-.587-.075,1.492,1.492,0,0,0-.467.072,1.209,1.209,0,0,0-.389.208,1.068,1.068,0,0,0-.27.326.908.908,0,0,0-.1.431.763.763,0,0,0,.115.418,1.391,1.391,0,0,0,.308.333c.171.122.34.24.509.353s.319.222.476.342a.718.718,0,0,1,.163.171.364.364,0,0,1,.062.216.45.45,0,0,1-.139.334.5.5,0,0,1-.368.137.89.89,0,0,1-.424-.1c-.132-.069-.283-.157-.45-.261l-.081-.051-.343.561.076.051a2.736,2.736,0,0,0,.575.3,1.766,1.766,0,0,0,.62.111,1.4,1.4,0,0,0,.92-.3,1.032,1.032,0,0,0,.371-.834.975.975,0,0,0-.457-.807" fill="#343756"/>
      <path id="Path_27" data-name="Path 27" d="M48.726,140.132h0c.053-.075.22-.087.386-.046a1.313,1.313,0,0,1,.173.055l.089.035.229-.582-.1-.03c-.1-.03-.205-.062-.318-.094a1.161,1.161,0,0,0-.671-.01.982.982,0,0,0-.308.141.768.768,0,0,0-.239.271.859.859,0,0,0-.095.417v.926h-.567v.61h.567V144.3a1.975,1.975,0,0,0,.046.427,1.592,1.592,0,0,0,.048.2l.02.068h.679v-3.172h.7l.1-.61h-.8v-.846a.405.405,0,0,1,.06-.237" fill="#343756"/>
      <path id="Path_28" data-name="Path 28" d="M51.643,141.109a1.7,1.7,0,0,0-.686.139,1.616,1.616,0,0,0-.556.4,1.957,1.957,0,0,0-.366.62,2.272,2.272,0,0,0-.133.794,2.644,2.644,0,0,0,.137.893,1.8,1.8,0,0,0,.378.636,1.522,1.522,0,0,0,.557.374,1.885,1.885,0,0,0,.669.12,1.55,1.55,0,0,0,.654-.146,1.746,1.746,0,0,0,.557-.409,2.013,2.013,0,0,0,.385-.638,2.334,2.334,0,0,0,.141-.83,2.129,2.129,0,0,0-.451-1.421,1.608,1.608,0,0,0-1.286-.534m0,.636a.872.872,0,0,1,.435.1.822.822,0,0,1,.292.279,1.335,1.335,0,0,1,.171.422,2.487,2.487,0,0,1-.01,1.085,1.62,1.62,0,0,1-.185.448.824.824,0,0,1-.3.286.81.81,0,0,1-.408.1.8.8,0,0,1-.679-.354,1.765,1.765,0,0,1-.27-1.05,2.091,2.091,0,0,1,.067-.527,1.3,1.3,0,0,1,.191-.422.907.907,0,0,1,.3-.273.783.783,0,0,1,.394-.1" fill="#343756"/>
      <path id="Path_29" data-name="Path 29" d="M56.345,141.214a.847.847,0,0,0-.869.125c-.112.088-.233.193-.359.314l-.01-.04a.941.941,0,0,0-.069-.186,1.719,1.719,0,0,0-.085-.2l-.037-.074-.734.241.225.524V144.3c0,.089,0,.17.009.242a1.386,1.386,0,0,0,.028.193c.011.07.024.133.036.188L54.5,145h.685v-2.608c.124-.147.245-.28.361-.4a.464.464,0,0,1,.33-.159.279.279,0,0,1,.161.042c.057.04.125.093.206.16l.09.074.359-.678-.062-.049a1.379,1.379,0,0,0-.281-.169" fill="#343756"/>
      <path id="Path_30" data-name="Path 30" d="M59.53,144.264a3.25,3.25,0,0,0,.028.462c.012.07.024.134.036.194l.015.077h.722v-2.422h1.856v-.682H60.331v-1.585h1.995l.136-.691H59.53Z" fill="#343756"/>
      <path id="Path_31" data-name="Path 31" d="M64.871,141.108a1.716,1.716,0,0,0-.688.139,1.6,1.6,0,0,0-.554.4,1.915,1.915,0,0,0-.366.619,2.276,2.276,0,0,0-.133.794,2.644,2.644,0,0,0,.137.893,1.791,1.791,0,0,0,.377.636,1.522,1.522,0,0,0,.557.374,1.865,1.865,0,0,0,.67.12,1.563,1.563,0,0,0,.653-.145,1.723,1.723,0,0,0,.557-.41,2.009,2.009,0,0,0,.385-.637,2.317,2.317,0,0,0,.142-.831,2.131,2.131,0,0,0-.451-1.421,1.608,1.608,0,0,0-1.286-.534m.953,1.955a2.3,2.3,0,0,1-.066.568,1.6,1.6,0,0,1-.185.448.83.83,0,0,1-1.382.035,1.772,1.772,0,0,1-.268-1.051,2.088,2.088,0,0,1,.065-.526,1.326,1.326,0,0,1,.191-.423.929.929,0,0,1,.3-.273.792.792,0,0,1,.4-.1.874.874,0,0,1,.435.1.838.838,0,0,1,.292.279,1.308,1.308,0,0,1,.171.422,2.354,2.354,0,0,1,.055.517" fill="#343756"/>
      <path id="Path_32" data-name="Path 32" d="M69.291,141.108a1.712,1.712,0,0,0-.688.139,1.608,1.608,0,0,0-.555.4,1.933,1.933,0,0,0-.366.619,2.276,2.276,0,0,0-.133.794,2.644,2.644,0,0,0,.137.893,1.775,1.775,0,0,0,.378.636,1.505,1.505,0,0,0,.557.374,1.857,1.857,0,0,0,.67.12,1.555,1.555,0,0,0,.652-.145,1.723,1.723,0,0,0,.557-.41,2.008,2.008,0,0,0,.385-.637,2.317,2.317,0,0,0,.142-.831,2.131,2.131,0,0,0-.451-1.421,1.606,1.606,0,0,0-1.285-.534m.953,1.955a2.323,2.323,0,0,1-.066.568,1.631,1.631,0,0,1-.186.448.829.829,0,0,1-1.381.035,1.766,1.766,0,0,1-.269-1.051,2.043,2.043,0,0,1,.066-.526,1.3,1.3,0,0,1,.19-.423.922.922,0,0,1,.3-.273.776.776,0,0,1,.395-.1.871.871,0,0,1,.434.1.822.822,0,0,1,.292.279,1.308,1.308,0,0,1,.171.422,2.321,2.321,0,0,1,.056.517" fill="#343756"/>
      <path id="Path_33" data-name="Path 33" d="M75.149,140.02c0-.08,0-.156-.01-.229s-.012-.134-.019-.2-.024-.116-.03-.163l-.014-.121-.7.267v1.688a1.651,1.651,0,0,0-.284-.091,1.678,1.678,0,0,0-1.194.123,1.524,1.524,0,0,0-.53.47,1.977,1.977,0,0,0-.3.672,3.146,3.146,0,0,0-.1.778,3,3,0,0,0,.076.67,1.854,1.854,0,0,0,.25.6,1.372,1.372,0,0,0,.45.437,1.281,1.281,0,0,0,.662.167,1.371,1.371,0,0,0,.644-.156,2.1,2.1,0,0,0,.384-.255c.007.023.014.044.021.064a1.408,1.408,0,0,0,.073.165.515.515,0,0,0,.115.142l.045.037.628-.257-.168-.471Zm-.806,1.906v2.036a.866.866,0,0,1-.126.168,1.158,1.158,0,0,1-.194.174.957.957,0,0,1-.216.121.569.569,0,0,1-.208.043.671.671,0,0,1-.617-.339,1.785,1.785,0,0,1-.22-.937,2.522,2.522,0,0,1,.061-.557,1.572,1.572,0,0,1,.185-.461.948.948,0,0,1,.306-.308.815.815,0,0,1,.441-.113,1.112,1.112,0,0,1,.337.06,1.04,1.04,0,0,1,.251.113" fill="#343756"/>
      <path id="Path_34" data-name="Path 34" d="M78.1,139.617v.682h1.446v3.965a2.15,2.15,0,0,0,.046.462,1.893,1.893,0,0,0,.047.2l.02.068h.715v-4.7h1.36l.242-.682Z" fill="#343756"/>
      <path id="Path_35" data-name="Path 35" d="M84.107,141.214a.847.847,0,0,0-.869.125q-.171.135-.359.314c0-.014-.007-.026-.01-.039a.894.894,0,0,0-.069-.187,1.719,1.719,0,0,0-.084-.2l-.037-.074-.735.24.225.525V144.3c0,.089,0,.17.009.242a1.425,1.425,0,0,0,.028.194c.012.07.025.132.037.187l.016.074h.685v-2.608c.123-.146.244-.279.36-.4a.464.464,0,0,1,.33-.159.272.272,0,0,1,.161.043c.057.039.125.092.206.159l.09.074.361-.678-.064-.05a1.375,1.375,0,0,0-.281-.168" fill="#343756"/>
      <path id="Path_36" data-name="Path 36" d="M87.765,142.015a.834.834,0,0,0-.322-.707,1.655,1.655,0,0,0-1.521-.1,5.649,5.649,0,0,0-.836.36l-.092.048.349.544.077-.041a6.252,6.252,0,0,1,.588-.265c.4-.158.806-.168.923-.013a.645.645,0,0,1,.094.386v.367c-.051,0-.1-.007-.154-.007h-.232a2.138,2.138,0,0,0-1.258.339,1.141,1.141,0,0,0-.493.983,1.21,1.21,0,0,0,.3.838,1.1,1.1,0,0,0,.862.342,1.247,1.247,0,0,0,.376-.058,1.691,1.691,0,0,0,.32-.145,1.646,1.646,0,0,0,.264-.2l.047-.045c.005.019.011.036.017.053a1.084,1.084,0,0,0,.089.189.478.478,0,0,0,.149.167l.044.03.587-.259-.182-.469Zm-.74,1.178v.708a2.581,2.581,0,0,1-.38.388.73.73,0,0,1-.484.17.446.446,0,0,1-.387-.161.669.669,0,0,1-.129-.409.612.612,0,0,1,.241-.52,1.284,1.284,0,0,1,.771-.192c.065,0,.138,0,.224,0,.049,0,.1.006.144.012" fill="#343756"/>
      <path id="Path_37" data-name="Path 37" d="M92.02,140.021c0-.08,0-.156-.009-.229s-.012-.134-.019-.2a1.444,1.444,0,0,1-.03-.163l-.014-.121-.7.267v1.689a1.813,1.813,0,0,0-1.478.031,1.535,1.535,0,0,0-.531.47,2.02,2.02,0,0,0-.3.671,3.209,3.209,0,0,0-.094.779,3.018,3.018,0,0,0,.075.67,1.912,1.912,0,0,0,.25.6,1.382,1.382,0,0,0,.451.436,1.263,1.263,0,0,0,.661.168,1.363,1.363,0,0,0,.644-.157,2.069,2.069,0,0,0,.385-.254.534.534,0,0,0,.021.064,1.47,1.47,0,0,0,.072.163.488.488,0,0,0,.116.143l.044.037.629-.256-.169-.472Zm-.806,1.9v2.037a.934.934,0,0,1-.124.168,1.332,1.332,0,0,1-.195.174.968.968,0,0,1-.216.12.555.555,0,0,1-.209.043.671.671,0,0,1-.616-.338,1.79,1.79,0,0,1-.221-.937,2.448,2.448,0,0,1,.063-.558,1.538,1.538,0,0,1,.184-.46.951.951,0,0,1,.306-.309.833.833,0,0,1,.441-.112,1.1,1.1,0,0,1,.336.06,1.081,1.081,0,0,1,.251.112" fill="#343756"/>
      <path id="Path_38" data-name="Path 38" d="M93.3,144.3c0,.075,0,.148.009.222s.015.144.027.206.026.135.042.2l.018.073h.678v-3.92l-.774.223Z" fill="#343756"/>
      <path id="Path_39" data-name="Path 39" d="M96.6,141.335a5.38,5.38,0,0,0-.528.344,1.616,1.616,0,0,0-.08-.281c-.026-.067-.051-.125-.076-.175l-.038-.075-.709.252.174.484V144.3c0,.074,0,.147.01.222a1.78,1.78,0,0,0,.027.2c.012.07.024.134.036.2l.015.076h.678v-2.643a2.437,2.437,0,0,1,.2-.172c.091-.069.185-.134.289-.2a2.312,2.312,0,0,1,.29-.155.442.442,0,0,1,.439,0,.351.351,0,0,1,.124.143.677.677,0,0,1,.058.224q.012.135.012.279V144.3c0,.074,0,.147.01.223a1.949,1.949,0,0,0,.029.207c.015.072.032.137.05.2l.021.068H98.3v-2.718a1.191,1.191,0,0,0-.286-.857,1.11,1.11,0,0,0-1.414-.087" fill="#343756"/>
      <path id="Path_40" data-name="Path 40" d="M101.96,141.1l-.036.087a.268.268,0,0,1-.05.076c-.019.031-.04.067-.061.11l-.011.02a1.8,1.8,0,0,0-.313-.171,1.472,1.472,0,0,0-1.157.032,1.535,1.535,0,0,0-.526.4,1.918,1.918,0,0,0-.357.664,2.95,2.95,0,0,0-.127.9,2.807,2.807,0,0,0,.085.709,1.683,1.683,0,0,0,.268.571,1.207,1.207,0,0,0,.464.383,1.487,1.487,0,0,0,.648.132,1.356,1.356,0,0,0,.566-.131,2.04,2.04,0,0,0,.333-.193v.447c0,.108,0,.219-.013.332a.658.658,0,0,1-.08.276.52.52,0,0,1-.2.2.868.868,0,0,1-.414.078,2.021,2.021,0,0,1-.584-.084c-.195-.056-.38-.115-.555-.174l-.091-.031-.205.646.09.029a6.524,6.524,0,0,0,.665.18,3.348,3.348,0,0,0,.689.076,1.586,1.586,0,0,0,1.076-.355,1.265,1.265,0,0,0,.412-1v-3.388l.152-.561Zm-.274.992v1.826a1.136,1.136,0,0,1-.315.318.8.8,0,0,1-.473.161.716.716,0,0,1-.368-.086.658.658,0,0,1-.234-.248,1.344,1.344,0,0,1-.136-.4,2.746,2.746,0,0,1-.046-.528,1.647,1.647,0,0,1,.281-1.035.811.811,0,0,1,.659-.342.681.681,0,0,1,.373.1.993.993,0,0,1,.259.234" fill="#343756"/>
    </g>
  </g>
  <g id="Group_4" data-name="Group 4">
    <g id="Group_3" data-name="Group 3" clip-path="url(#clip-path-2)">
      <rect id="Rectangle_3" data-name="Rectangle 3" width="56.567" height="16.43" transform="translate(23.574 41.21)" fill="url(#linear-gradient)"/>
    </g>
  </g>
  <g id="Group_6" data-name="Group 6">
    <g id="Group_5" data-name="Group 5" clip-path="url(#clip-path)">
      <path id="Path_42" data-name="Path 42" d="M67.963,46.742S86.326,31.248,69.894,5.948c0,0-2.1,7.04-11.763,4.075a38.248,38.248,0,0,1-5.573-2.36,22.906,22.906,0,0,0-6.49-2.1,14.735,14.735,0,0,1-4.2-1.246A14.71,14.71,0,0,1,36.977,0s4.194,9.381,3.739,12.494-1.911,2.961-4.882,2.56a7.8,7.8,0,0,1,1.88,7.692c-1.4,4.627-.855,8.476,1.612,14.057s-1.641,4.337-3.052,3.99c0,0,7.841,13.474,27.187,8.245,0,0,3.48-5.371-6.707-21.5,0,0,10.116,7.01,11.209,19.2" fill="#529c21"/>
    </g>
  </g>
  <g id="Group_8" data-name="Group 8">
    <g id="Group_7" data-name="Group 7" clip-path="url(#clip-path-4)">
      <rect id="Rectangle_5" data-name="Rectangle 5" width="3.268" height="3.392" transform="translate(52.117 61.512)" fill="url(#linear-gradient-2)"/>
    </g>
  </g>
  <g id="Group_10" data-name="Group 10">
    <g id="Group_9" data-name="Group 9" clip-path="url(#clip-path-5)">
      <rect id="Rectangle_6" data-name="Rectangle 6" width="3.271" height="3.359" transform="translate(29.479 77.802)" fill="url(#linear-gradient-3)"/>
    </g>
  </g>
  <g id="Group_12" data-name="Group 12">
    <g id="Group_11" data-name="Group 11" clip-path="url(#clip-path-6)">
      <rect id="Rectangle_7" data-name="Rectangle 7" width="59.182" height="15.599" transform="translate(19.373 61.366)" fill="url(#linear-gradient-4)"/>
    </g>
  </g>
  <g id="Group_14" data-name="Group 14">
    <g id="Group_13" data-name="Group 13" clip-path="url(#clip-path-7)">
      <rect id="Rectangle_8" data-name="Rectangle 8" width="2.287" height="15.593" transform="translate(80.967 61.372)" fill="url(#linear-gradient-5)"/>
    </g>
  </g>
  <g id="Group_16" data-name="Group 16">
    <g id="Group_15" data-name="Group 15" clip-path="url(#clip-path)">
      <path id="Path_47" data-name="Path 47" d="M79.746,114.4H22.881a9.982,9.982,0,0,1-9.97-9.97V27.4a9.981,9.981,0,0,1,9.97-9.97H33.5a.589.589,0,1,1,0,1.177H22.881A8.8,8.8,0,0,0,14.088,27.4v77.032a8.8,8.8,0,0,0,8.793,8.794H79.746a8.8,8.8,0,0,0,8.794-8.794V27.4a8.8,8.8,0,0,0-8.794-8.793h-.135a.589.589,0,0,1,0-1.177h.135a9.981,9.981,0,0,1,9.97,9.97v77.032a9.982,9.982,0,0,1-9.97,9.97" fill="#529c21"/>
      <path id="Path_48" data-name="Path 48" d="M44.467,87.16l-1.63-1.719-1.7,1.719,1.7,1.666Z" fill="#529c21"/>
      <path id="Path_49" data-name="Path 49" d="M58.411,87.443l-1.668-1.7-1.632,1.7,1.632,1.668Z" fill="#529c21"/>
      <path id="Path_50" data-name="Path 50" d="M70.106,85.983H74.7V84.56H73.022c-.332,0-.451-.079-.5-.128A.477.477,0,0,1,72.4,84.1a.226.226,0,0,1,.111-.213.942.942,0,0,1,.861-.01l.4.263V82.71l-.158-.069a2.117,2.117,0,0,0-.354-.113,2.449,2.449,0,0,0-.54-.049,1.951,1.951,0,0,0-1.182.384,1.482,1.482,0,0,0-.548,1.262,2.378,2.378,0,0,0,.032.388l.006.047H69.016Z" fill="#529c21"/>
      <path id="Path_51" data-name="Path 51" d="M52.343,100.891a18.464,18.464,0,0,0,4.479-.6A22.911,22.911,0,0,0,61.706,98.4c.6-.312,1.16-.583,1.656-.809a12.229,12.229,0,0,1,1.506-.568,11.893,11.893,0,0,1,1.528-.354c.51-.081,1.091-.142,1.73-.18l.148-.01L69.6,93.82H67.529a6.957,6.957,0,0,1-2.852-.558c-.861-.384-1.711-.813-2.525-1.276a28.688,28.688,0,0,0-2.6-1.3,7.659,7.659,0,0,0-3.094-.6,6.374,6.374,0,0,0-1.7.244,5.7,5.7,0,0,0-1.735.85l-.108.078v3.221l.441-.441a3.86,3.86,0,0,1,1.451-.95,5.835,5.835,0,0,1,3.6,0,10.8,10.8,0,0,1,1.686.678,16.337,16.337,0,0,1,1.5.863,11.881,11.881,0,0,0,1.078.625,35.864,35.864,0,0,1-5.125,2.254,17.167,17.167,0,0,1-5.586.926H48.89a1.609,1.609,0,0,1-.611-.129.626.626,0,0,1-.311-.257,5.671,5.671,0,0,0,.7-1.567,7,7,0,0,0,.227-1.793,5,5,0,0,0-1.582-3.727,5.344,5.344,0,0,0-1.774-1.094,6.355,6.355,0,0,0-2.469-.388,6.5,6.5,0,0,0-2.678.678,11.335,11.335,0,0,0-2.675,1.894A22.858,22.858,0,0,0,35.2,94.863c-.77,1-1.55,2.111-2.321,3.292a.561.561,0,0,1-.123-.241,3.342,3.342,0,0,1-.091-.82V90.925L30.4,92.8v4.381a1.738,1.738,0,0,1-.23.959.964.964,0,0,1-.841.3h-2.4L25.8,89.3l-2.279,1.614,1.009,7.834c0,.14,0,.288.014.449s.014.308.014.471a2.488,2.488,0,0,1-.416,1.5,3,3,0,0,1-1.157.932,6.383,6.383,0,0,1-1.725.517,13.136,13.136,0,0,1-2.048.158h-.163L18,105.009H20.09a14.894,14.894,0,0,0,2.031-.15,7.318,7.318,0,0,0,2.1-.616,5.227,5.227,0,0,0,1.751-1.325,4.368,4.368,0,0,0,.941-2.027h2.472a3.923,3.923,0,0,0,1.363-.249,1.581,1.581,0,0,0,.774-.588,1.625,1.625,0,0,0,.921.624,6.6,6.6,0,0,0,1.726.213h6.863a13.077,13.077,0,0,0,3.148-.326,8.174,8.174,0,0,0,2.017-.782,1.789,1.789,0,0,0,.91.843,3.692,3.692,0,0,0,1.384.265ZM41.206,98.434H35.362c.573-.8,1.152-1.563,1.735-2.266a19.631,19.631,0,0,1,2.086-2.184A10.264,10.264,0,0,1,41.316,92.5,4.8,4.8,0,0,1,43.5,91.96a2.779,2.779,0,0,1,1.178.253,3.029,3.029,0,0,1,.939.669,3.169,3.169,0,0,1,.62.983,3.019,3.019,0,0,1,.23,1.148,2.926,2.926,0,0,1-.28,1.221l0,0A2.94,2.94,0,0,1,45.3,97.33a4.82,4.82,0,0,1-1.614.8,8.632,8.632,0,0,1-2.476.305" fill="#529c21"/>
      <path id="Path_52" data-name="Path 52" d="M80.143,98.191a2.632,2.632,0,0,1-2.857,2.691H69.253V98.439H69.5a3.581,3.581,0,0,0,1.47-.372,9.774,9.774,0,0,0,1.636-.973,12.148,12.148,0,0,0,1.449-1.2,5.179,5.179,0,0,0,.89-1.118l1.45,1.7a3.041,3.041,0,0,1-.58.7,6.2,6.2,0,0,1-.89.724,6.811,6.811,0,0,1-.891.538H77.12a.9.9,0,0,0,.518-.145.448.448,0,0,0,.145-.331.9.9,0,0,0-.083-.29,1.562,1.562,0,0,0-.207-.372c-1.16-1.532-2.319-3.023-3.437-4.431s-2.3-2.836-3.478-4.244l-.352-.435h3l.083.1c.6.745,1.2,1.449,1.739,2.173l1.47,1.864a9.2,9.2,0,0,0,.621-2.319,25.966,25.966,0,0,0,.166-2.857V85.872H79.77v.249c.021.31.042.538.042.7v.641a20.438,20.438,0,0,1-.332,3.665A10.351,10.351,0,0,1,78.2,94.464l1.2,1.574a2.965,2.965,0,0,1,.6,1.076,3.943,3.943,0,0,1,.145,1.077" fill="#529c21"/>
      <path id="Path_53" data-name="Path 53" d="M82.344,100.89h2.287V85.3l-2.287,1.938Z" fill="#529c21"/>
    </g>
  </g>
</svg>
